<?xml version="1.0" encoding="utf-8"?>
<!-- Generator: Adobe Illustrator 22.1.0, SVG Export Plug-In . SVG Version: 6.00 Build 0)  -->
<svg version="1.1" baseProfile="tiny" id="Layer_1" xmlns="http://www.w3.org/2000/svg" xmlns:xlink="http://www.w3.org/1999/xlink"
	 x="0px" y="0px" viewBox="0 0 64 64" xml:space="preserve">
<line fill="none" stroke="#4D4D4D" stroke-width="3" stroke-miterlimit="10" x1="-86.7" y1="48.7" x2="-86.7" y2="15.3"/>
<line fill="none" stroke="#4D4D4D" stroke-width="3" stroke-miterlimit="10" x1="-80.7" y1="48.7" x2="-92.7" y2="48.7"/>
<line fill="none" stroke="#4D4D4D" stroke-width="3" stroke-miterlimit="10" x1="-80.7" y1="15.3" x2="-92.7" y2="15.3"/>
<line fill="none" stroke="#4D4D4D" stroke-width="3" stroke-miterlimit="10" x1="-80.7" y1="32" x2="-92.7" y2="32"/>
<path fill="none" stroke="#4D4D4D" stroke-width="3" stroke-miterlimit="10" d="M102.7,17.6c5,2.9,8.3,8.3,8.3,14.4v11.8"/>
<g>
	<polyline fill="none" stroke="#4D4D4D" stroke-width="3" stroke-miterlimit="10" points="-20.9,24.9 -20.9,17.8 -28.1,17.8 	"/>
	<path fill="none" stroke="#4D4D4D" stroke-width="3" stroke-miterlimit="10" d="M-21.7,46.2c-7.8-7.8-7.8-20.5,0-28.3"/>
</g>
<line fill="none" stroke="#4D4D4D" stroke-width="3" stroke-miterlimit="10" x1="15.3" y1="32" x2="48.7" y2="32"/>
<line fill="none" stroke="#4D4D4D" stroke-width="3" stroke-miterlimit="10" x1="15.3" y1="38" x2="15.3" y2="26"/>
<line fill="none" stroke="#4D4D4D" stroke-width="3" stroke-miterlimit="10" x1="48.7" y1="38" x2="48.7" y2="26"/>
<line fill="none" stroke="#4D4D4D" stroke-width="3" stroke-miterlimit="10" x1="32" y1="38" x2="32" y2="26"/>
<polyline fill="none" stroke="#4D4D4D" stroke-width="3" stroke-miterlimit="10" points="-59.1,13.5 -52.9,7.3 -59.1,1.2 "/>
<path fill="none" stroke="#4D4D4D" stroke-width="3" stroke-miterlimit="10" d="M-56,56.7c-13.6,0-24.7-11-24.7-24.7
	S-69.6,7.3-56,7.3h3.1"/>
<path fill="none" stroke="#4D4D4D" stroke-width="3" stroke-miterlimit="10" d="M3.9,55.3V8.7c0-2.7,2.2-4.8,4.8-4.8h46.5
	c2.7,0,4.8,2.2,4.8,4.8v46.5c0,2.7-2.2,4.8-4.8,4.8H8.7C6.1,60.1,3.9,57.9,3.9,55.3z"/>
</svg>
