<?xml version="1.0" encoding="utf-8"?>
<!-- Generator: Adobe Illustrator 22.1.0, SVG Export Plug-In . SVG Version: 6.00 Build 0)  -->
<svg version="1.1" baseProfile="tiny" id="Layer_1" xmlns="http://www.w3.org/2000/svg" xmlns:xlink="http://www.w3.org/1999/xlink"
	 x="0px" y="0px" viewBox="0 0 81.7 26.1" xml:space="preserve">
<g>
	<circle fill="none" stroke="#FFFFFF" stroke-linecap="round" stroke-miterlimit="10" cx="13.4" cy="6.3" r="1.2"/>
	<circle fill="none" stroke="#FFFFFF" stroke-linecap="round" stroke-miterlimit="10" cx="7" cy="17.2" r="1.2"/>
	<circle fill="none" stroke="#FFFFFF" stroke-linecap="round" stroke-miterlimit="10" cx="19.8" cy="17.2" r="1.2"/>
	<path fill="none" stroke="#FFFFFF" stroke-linecap="round" stroke-miterlimit="10" d="M17.6,19.6C16.4,20.5,15,21,13.4,21
		c-2.3,0-4.3-1-5.7-2.7"/>
	<path fill="none" stroke="#FFFFFF" stroke-linecap="round" stroke-miterlimit="10" d="M16.5,7c2.5,1.2,4.2,3.7,4.2,6.6
		c0,0.8-0.1,1.7-0.4,2.4"/>
	<path fill="none" stroke="#FFFFFF" stroke-linecap="round" stroke-miterlimit="10" d="M6.1,14.2c0-0.2,0-0.4,0-0.6
		c0-3.5,2.5-6.5,5.8-7.2"/>
</g>
<g>
	<path fill="#FFFFFF" d="M33.4,11.7l0-5.2l-2.6,4.3h-0.5l-2.6-4.3v5.2h-1V4.6h0.8l3,5l2.9-5h0.8l0,7.1H33.4z"/>
	<path fill="#FFFFFF" d="M37.2,11.4c-0.4-0.2-0.8-0.6-1-1C35.9,10,35.8,9.5,35.8,9s0.1-1,0.4-1.4c0.2-0.4,0.6-0.7,1-1
		c0.4-0.2,0.9-0.4,1.4-0.4s1,0.1,1.4,0.4c0.4,0.2,0.8,0.6,1,1C41.3,8,41.4,8.5,41.4,9s-0.1,1-0.4,1.4c-0.2,0.4-0.6,0.7-1,1
		s-0.9,0.4-1.4,0.4S37.6,11.6,37.2,11.4z M39.6,10.7c0.3-0.2,0.5-0.4,0.6-0.7c0.2-0.3,0.2-0.6,0.2-1s-0.1-0.7-0.2-1
		c-0.2-0.3-0.4-0.5-0.6-0.7c-0.3-0.2-0.6-0.2-0.9-0.2c-0.3,0-0.7,0.1-0.9,0.2C37.4,7.5,37.2,7.7,37,8c-0.2,0.3-0.2,0.6-0.2,1
		s0.1,0.7,0.2,1c0.2,0.3,0.4,0.5,0.7,0.7c0.3,0.2,0.6,0.2,0.9,0.2C39,10.9,39.3,10.8,39.6,10.7z"/>
	<path fill="#FFFFFF" d="M44.5,6.5c0.3-0.2,0.7-0.2,1.2-0.2v0.9c-0.1,0-0.1,0-0.2,0c-0.5,0-0.9,0.2-1.2,0.5S43.8,8.4,43.8,9v2.7h-1
		V6.3h0.9v0.9C43.9,6.9,44.1,6.7,44.5,6.5z"/>
	<path fill="#FFFFFF" d="M50.1,11.4c-0.1,0.1-0.3,0.2-0.5,0.3c-0.2,0.1-0.4,0.1-0.7,0.1c-0.5,0-1-0.1-1.3-0.4s-0.4-0.7-0.4-1.3v-3
		h-0.9V6.3h0.9V5.1h1v1.2h1.5v0.8h-1.5V10c0,0.3,0.1,0.5,0.2,0.7c0.1,0.2,0.4,0.2,0.6,0.2c0.3,0,0.6-0.1,0.8-0.3L50.1,11.4z"/>
	<path fill="#FFFFFF" d="M56.3,6.3V11c0,0.9-0.2,1.6-0.7,2.1c-0.5,0.5-1.2,0.7-2.1,0.7c-0.5,0-1-0.1-1.5-0.2
		c-0.5-0.1-0.8-0.3-1.1-0.6l0.5-0.8c0.2,0.2,0.6,0.4,0.9,0.5c0.4,0.1,0.8,0.2,1.1,0.2c0.6,0,1.1-0.1,1.4-0.4s0.5-0.8,0.5-1.4v-0.4
		c-0.2,0.3-0.5,0.5-0.8,0.6c-0.3,0.1-0.7,0.2-1.1,0.2c-0.5,0-1-0.1-1.4-0.3c-0.4-0.2-0.7-0.5-1-0.9c-0.2-0.4-0.4-0.8-0.4-1.4
		c0-0.5,0.1-1,0.4-1.4c0.2-0.4,0.6-0.7,1-0.9c0.4-0.2,0.9-0.3,1.4-0.3c0.4,0,0.8,0.1,1.1,0.2c0.3,0.1,0.6,0.4,0.9,0.7V6.3H56.3z
		 M54.4,10.4c0.3-0.1,0.5-0.4,0.7-0.6c0.2-0.3,0.2-0.6,0.2-0.9c0-0.5-0.2-0.9-0.5-1.3c-0.3-0.3-0.8-0.5-1.3-0.5
		c-0.5,0-1,0.2-1.3,0.5c-0.3,0.3-0.5,0.7-0.5,1.3c0,0.3,0.1,0.6,0.2,0.9s0.4,0.5,0.7,0.6c0.3,0.1,0.6,0.2,1,0.2
		C53.8,10.6,54.2,10.6,54.4,10.4z"/>
	<path fill="#FFFFFF" d="M61.8,6.8c0.4,0.4,0.6,0.9,0.6,1.6v3.3h-0.9V11c-0.2,0.3-0.4,0.4-0.7,0.6s-0.7,0.2-1.1,0.2
		c-0.6,0-1.1-0.1-1.5-0.4c-0.4-0.3-0.5-0.7-0.5-1.1s0.2-0.9,0.5-1.1c0.3-0.3,0.9-0.4,1.6-0.4h1.5V8.4c0-0.4-0.1-0.7-0.4-1
		c-0.2-0.2-0.6-0.3-1.1-0.3c-0.3,0-0.6,0.1-0.9,0.2c-0.3,0.1-0.6,0.2-0.8,0.4L57.9,7c0.3-0.2,0.6-0.4,1-0.5s0.8-0.2,1.2-0.2
		C60.9,6.3,61.4,6.4,61.8,6.8z M60.9,10.8c0.3-0.2,0.5-0.4,0.6-0.7V9.3h-1.5c-0.8,0-1.2,0.3-1.2,0.8c0,0.3,0.1,0.5,0.3,0.6
		c0.2,0.2,0.5,0.2,0.9,0.2S60.6,10.9,60.9,10.8z"/>
	<path fill="#FFFFFF" d="M69.4,6.3V11c0,0.9-0.2,1.6-0.7,2.1c-0.5,0.5-1.2,0.7-2.1,0.7c-0.5,0-1-0.1-1.5-0.2
		c-0.5-0.1-0.8-0.3-1.1-0.6l0.5-0.8c0.3,0.2,0.6,0.4,0.9,0.5c0.4,0.1,0.8,0.2,1.1,0.2c0.6,0,1.1-0.1,1.4-0.4s0.5-0.8,0.5-1.4v-0.4
		c-0.2,0.3-0.5,0.5-0.8,0.6c-0.3,0.1-0.7,0.2-1.1,0.2c-0.5,0-1-0.1-1.4-0.3c-0.4-0.2-0.7-0.5-1-0.9c-0.2-0.4-0.4-0.8-0.4-1.4
		c0-0.5,0.1-1,0.4-1.4c0.2-0.4,0.6-0.7,1-0.9c0.4-0.2,0.9-0.3,1.4-0.3c0.4,0,0.8,0.1,1.1,0.2c0.3,0.1,0.6,0.4,0.9,0.7V6.3H69.4z
		 M67.6,10.4c0.3-0.1,0.5-0.4,0.7-0.6c0.2-0.3,0.2-0.6,0.2-0.9c0-0.5-0.2-0.9-0.5-1.3c-0.3-0.3-0.8-0.5-1.3-0.5
		c-0.5,0-1,0.2-1.3,0.5c-0.3,0.3-0.5,0.7-0.5,1.3c0,0.3,0.1,0.6,0.2,0.9s0.4,0.5,0.7,0.6c0.3,0.1,0.6,0.2,1,0.2
		C67,10.6,67.3,10.6,67.6,10.4z"/>
	<path fill="#FFFFFF" d="M76.1,9.3h-4.4c0.1,0.5,0.3,0.9,0.6,1.1c0.4,0.3,0.8,0.4,1.3,0.4c0.6,0,1.2-0.2,1.6-0.7l0.5,0.6
		c-0.2,0.3-0.5,0.5-0.9,0.7c-0.4,0.1-0.8,0.2-1.2,0.2c-0.6,0-1.1-0.1-1.5-0.4c-0.4-0.2-0.8-0.6-1-1C70.9,10,70.8,9.5,70.8,9
		c0-0.5,0.1-1,0.4-1.4s0.6-0.7,1-1c0.4-0.2,0.9-0.4,1.4-0.4c0.5,0,1,0.1,1.4,0.4c0.4,0.2,0.7,0.6,0.9,1C76,8,76.2,8.5,76.2,9
		C76.2,9.1,76.2,9.2,76.1,9.3z M72.3,7.5c-0.3,0.3-0.5,0.7-0.6,1.1h3.5c-0.1-0.5-0.2-0.8-0.6-1.1S74,7.1,73.5,7.1
		C73,7.1,72.6,7.2,72.3,7.5z"/>
</g>
<g>
	<path fill="#FFFFFF" d="M28,21.1c-0.6-0.3-1-0.7-1.3-1.3s-0.5-1.2-0.5-1.9s0.2-1.3,0.5-1.9s0.8-1,1.4-1.3c0.6-0.3,1.2-0.5,1.9-0.5
		c0.6,0,1.1,0.1,1.5,0.3c0.5,0.2,0.9,0.5,1.2,0.8L32,16c-0.5-0.6-1.2-0.8-2-0.8c-0.5,0-1,0.1-1.4,0.4s-0.8,0.6-1,1
		c-0.2,0.4-0.4,0.9-0.4,1.4c0,0.5,0.1,1,0.4,1.4s0.6,0.7,1,1c0.4,0.2,0.9,0.4,1.4,0.4c0.8,0,1.5-0.3,2-0.9l0.7,0.6
		c-0.3,0.4-0.7,0.6-1.2,0.8c-0.5,0.2-1,0.3-1.5,0.3C29.2,21.5,28.6,21.4,28,21.1z"/>
	<path fill="#FFFFFF" d="M34.6,21.2c-0.4-0.2-0.8-0.6-1-1c-0.2-0.4-0.4-0.9-0.4-1.4s0.1-1,0.4-1.4c0.2-0.4,0.6-0.7,1-1
		C35,16.1,35.5,16,36,16s1,0.1,1.4,0.4c0.4,0.2,0.8,0.6,1,1c0.2,0.4,0.4,0.9,0.4,1.4s-0.1,1-0.4,1.4c-0.2,0.4-0.6,0.7-1,1
		s-0.9,0.4-1.4,0.4S35,21.4,34.6,21.2z M37,20.4c0.3-0.2,0.5-0.4,0.6-0.7c0.2-0.3,0.2-0.6,0.2-1s-0.1-0.7-0.2-1
		c-0.2-0.3-0.4-0.5-0.6-0.7c-0.3-0.2-0.6-0.2-0.9-0.2c-0.3,0-0.7,0.1-0.9,0.2c-0.3,0.2-0.5,0.4-0.7,0.7c-0.2,0.3-0.2,0.6-0.2,1
		s0.1,0.7,0.2,1c0.2,0.3,0.4,0.5,0.7,0.7c0.3,0.2,0.6,0.2,0.9,0.2C36.4,20.7,36.7,20.6,37,20.4z"/>
	<path fill="#FFFFFF" d="M44.7,16.6c0.4,0.4,0.6,1,0.6,1.7v3.1h-1v-3c0-0.5-0.1-0.9-0.4-1.2c-0.3-0.3-0.6-0.4-1.1-0.4
		c-0.5,0-0.9,0.2-1.3,0.5c-0.3,0.3-0.5,0.8-0.5,1.3v2.8h-1v-5.4h0.9v0.8c0.2-0.3,0.5-0.5,0.8-0.6c0.3-0.1,0.7-0.2,1.1-0.2
		C43.8,16,44.3,16.2,44.7,16.6z"/>
	<path fill="#FFFFFF" d="M51.6,16.6c0.4,0.4,0.6,1,0.6,1.7v3.1h-1v-3c0-0.5-0.1-0.9-0.4-1.2c-0.3-0.3-0.6-0.4-1.1-0.4
		c-0.5,0-0.9,0.2-1.3,0.5c-0.3,0.3-0.5,0.8-0.5,1.3v2.8h-1v-5.4h0.9v0.8c0.2-0.3,0.5-0.5,0.8-0.6c0.3-0.1,0.7-0.2,1.1-0.2
		C50.7,16,51.2,16.2,51.6,16.6z"/>
	<path fill="#FFFFFF" d="M58.9,19.1h-4.4c0.1,0.5,0.3,0.9,0.6,1.1c0.4,0.3,0.8,0.4,1.3,0.4c0.6,0,1.2-0.2,1.6-0.7l0.5,0.6
		c-0.2,0.3-0.5,0.5-0.9,0.7c-0.4,0.1-0.8,0.2-1.2,0.2c-0.6,0-1.1-0.1-1.5-0.4c-0.4-0.2-0.8-0.6-1-1c-0.2-0.4-0.4-0.9-0.4-1.4
		c0-0.5,0.1-1,0.4-1.4c0.2-0.4,0.6-0.7,1-1c0.4-0.2,0.9-0.4,1.4-0.4c0.5,0,1,0.1,1.4,0.4c0.4,0.2,0.7,0.6,0.9,1s0.3,0.9,0.3,1.4
		C59,18.9,59,19,58.9,19.1z M55.1,17.3c-0.3,0.3-0.5,0.7-0.6,1.1H58c-0.1-0.5-0.2-0.8-0.6-1.1s-0.7-0.4-1.2-0.4S55.4,17,55.1,17.3z"
		/>
	<path fill="#FFFFFF" d="M61.2,21.2c-0.4-0.2-0.8-0.6-1-1c-0.2-0.4-0.4-0.9-0.4-1.4s0.1-1,0.4-1.4c0.2-0.4,0.6-0.7,1-1
		c0.4-0.2,0.9-0.4,1.5-0.4c0.5,0,0.9,0.1,1.3,0.3c0.4,0.2,0.7,0.5,0.9,0.9l-0.7,0.5c-0.2-0.3-0.4-0.5-0.6-0.6s-0.5-0.2-0.8-0.2
		c-0.4,0-0.7,0.1-1,0.2c-0.3,0.2-0.5,0.4-0.7,0.7c-0.2,0.3-0.2,0.6-0.2,1c0,0.4,0.1,0.7,0.2,1c0.2,0.3,0.4,0.5,0.7,0.7
		c0.3,0.2,0.6,0.2,1,0.2c0.3,0,0.6-0.1,0.8-0.2s0.5-0.3,0.6-0.6l0.7,0.5c-0.2,0.4-0.5,0.7-0.9,0.9c-0.4,0.2-0.8,0.3-1.3,0.3
		C62.1,21.5,61.6,21.4,61.2,21.2z"/>
	<path fill="#FFFFFF" d="M69.2,21.1c-0.1,0.1-0.3,0.2-0.5,0.3c-0.2,0.1-0.4,0.1-0.7,0.1c-0.5,0-1-0.1-1.3-0.4s-0.4-0.7-0.4-1.3v-3
		h-0.9v-0.8h0.9v-1.2h1v1.2h1.5v0.8h-1.5v2.9c0,0.3,0.1,0.5,0.2,0.7c0.1,0.2,0.4,0.2,0.6,0.2c0.3,0,0.6-0.1,0.8-0.3L69.2,21.1z"/>
</g>
</svg>
